<svg width="800" height="800" viewBox="0 0 800 800" fill="none" xmlns="http://www.w3.org/2000/svg">
<path d="M515.725 125H284.3C279.039 124.997 273.828 126.031 268.968 128.045C264.107 130.058 259.691 133.011 255.973 136.733C252.255 140.456 249.308 144.876 247.301 149.739C245.293 154.602 244.265 159.814 244.275 165.075V635C244.272 640.257 245.305 645.463 247.315 650.321C249.325 655.178 252.273 659.592 255.991 663.309C259.708 667.027 264.122 669.975 268.979 671.985C273.837 673.995 279.043 675.028 284.3 675.025H515.725C537.8 675.025 555.725 657.075 555.725 635V165.075C555.725 142.95 537.8 125 515.725 125ZM359.55 150.575H442.1V169.775H359.55V150.575ZM400.025 635.45C393.253 635.443 386.759 632.754 381.966 627.97C377.172 623.186 374.47 616.697 374.45 609.925C374.741 603.344 377.56 597.13 382.32 592.576C387.08 588.022 393.413 585.48 400 585.48C406.587 585.48 412.92 588.022 417.68 592.576C422.44 597.13 425.259 603.344 425.55 609.925C425.525 622.275 414.05 635.45 400.025 635.45ZM525.725 547.925H274.275V192.6H525.725V547.925Z" fill="white"/>
</svg>
