<svg width="800" height="800" viewBox="0 0 800 800" fill="none" xmlns="http://www.w3.org/2000/svg">
<path fill-rule="evenodd" clip-rule="evenodd" d="M33.3333 400C33.3333 197.496 197.496 33.3333 400 33.3333C602.503 33.3333 766.667 197.496 766.667 400C766.667 602.503 602.503 766.667 400 766.667C197.496 766.667 33.3333 602.503 33.3333 400ZM416.667 183.333C435.077 183.333 450 198.257 450 216.667V350H583.333C601.743 350 616.667 364.923 616.667 383.333V416.667C616.667 435.077 601.743 450 583.333 450H450V583.333C450 601.743 435.077 616.667 416.667 616.667H383.333C364.923 616.667 350 601.743 350 583.333V450H216.667C198.257 450 183.333 435.077 183.333 416.667V383.333C183.333 364.923 198.257 350 216.667 350H350V216.667C350 198.257 364.923 183.333 383.333 183.333H416.667Z" fill="white"/>
</svg>
